<svg data-name="Layer 1" id="Layer_1" viewBox="0 0 228.14 68.63" xmlns="http://www.w3.org/2000/svg"><defs><style>.cls-1{fill:#222;}</style></defs><title>httpool-logo copy</title><path class="cls-1" d="M0,0H4.94V21.64a20.88,20.88,0,0,1,6.57-5.9A16,16,0,0,1,19.3,13.8,13.61,13.61,0,0,1,26.91,16a13,13,0,0,1,4.91,5.87q1.59,3.68,1.59,11.52V53.07H28.48V34.81A45.51,45.51,0,0,0,27.94,26a10,10,0,0,0-3.31-5.73,9.86,9.86,0,0,0-6.32-1.92,12.13,12.13,0,0,0-8,3,13.84,13.84,0,0,0-4.67,7.32A51.63,51.63,0,0,0,4.94,39v14H0Z"></path><polygon class="cls-1" points="48.27 0.56 53.18 0.56 53.18 14.78 61 14.78 61 19.04 53.18 19.04 53.18 53.06 48.27 53.06 48.27 19.04 41.53 19.04 41.53 14.78 48.27 14.78 48.27 0.56"></polygon><polygon class="cls-1" points="72.69 0.56 77.61 0.56 77.61 14.78 85.42 14.78 85.42 19.04 77.61 19.04 77.61 53.06 72.69 53.06 72.69 19.04 65.96 19.04 65.96 14.78 72.69 14.78 72.69 0.56"></polygon><path class="cls-1" d="M92.88,14.78h4.93v7a19.72,19.72,0,0,1,6.73-6,17.76,17.76,0,0,1,8.46-2,18.94,18.94,0,0,1,14,5.87,19.43,19.43,0,0,1,5.81,14.15A19.8,19.8,0,0,1,127,48.16a19.41,19.41,0,0,1-22.28,4,21,21,0,0,1-6.93-5.67V68.63H92.88Zm19.71,3.77A14.44,14.44,0,0,0,101.84,23a15.24,15.24,0,0,0-4.38,11.11,15.78,15.78,0,0,0,2,7.84A14.18,14.18,0,0,0,105,47.48a15.48,15.48,0,0,0,7.69,2,14.3,14.3,0,0,0,7.45-2.07,15,15,0,0,0,5.57-5.73,15.55,15.55,0,0,0,0-15.47,14.86,14.86,0,0,0-13.13-7.7"></path><rect class="cls-1" height="53.07" width="4.94" x="223.21"></rect><path class="cls-1" d="M197,54.87A20.52,20.52,0,0,1,181.8,48.1c-2.81-3.11-4.86-7-6.86-12.83-1.74-5.12-3.45-8.38-5.73-10.91A15,15,0,1,0,168.68,45l3.9,3.9a20.48,20.48,0,1,1,.73-28.2c2.81,3.12,4.86,7,6.85,12.83,1.74,5.12,3.46,8.39,5.73,10.91a15,15,0,1,0,.53-20.61l-3.89-3.9a20.48,20.48,0,1,1,14.48,35"></path></svg>