<svg width="82" height="50" viewBox="0 0 82 50" fill="none" xmlns="http://www.w3.org/2000/svg">
    <path d="M14.45 33.9999C13.99 33.7299 13.52 33.4799 13.03 33.2699C12.58 33.0699 12.12 32.8999 11.64 32.7599C11.16 32.5999 10.65 32.5199 10.14 32.5199C9.81 32.5099 9.49 32.5699 9.19 32.7099C8.96 32.8299 8.82 33.0699 8.83 33.3299C8.82 33.5299 8.9 33.7199 9.04 33.8599C9.22 34.0199 9.42 34.1499 9.64 34.2399C9.95 34.3699 10.27 34.4799 10.59 34.5699C10.96 34.6799 11.39 34.8099 11.86 34.9599C12.55 35.1699 13.23 35.4199 13.88 35.7099C14.44 35.9599 14.96 36.2899 15.43 36.6799C15.86 37.0499 16.19 37.5199 16.42 38.0399C16.65 38.5699 16.76 39.2199 16.76 39.9899C16.76 40.9699 16.58 41.7899 16.22 42.4499C15.88 43.0899 15.4 43.6399 14.8 44.0399C14.19 44.4499 13.52 44.7399 12.81 44.8999C12.08 45.0699 11.33 45.1599 10.58 45.1599C9.97 45.1599 9.35 45.1099 8.75 45.0199C8.12 44.9299 7.5 44.7999 6.88 44.6299C6.27 44.4599 5.68 44.2599 5.09 44.0299C4.54 43.8099 4.01 43.5499 3.5 43.2499L5.42 39.3299C5.96 39.6699 6.52 39.9699 7.1 40.2199C7.64 40.4699 8.19 40.6699 8.76 40.8399C9.37 41.0199 10.01 41.1099 10.65 41.1199C11.14 41.1199 11.48 41.0599 11.67 40.9199C11.85 40.8099 11.96 40.6099 11.96 40.3999C11.96 40.1699 11.85 39.9599 11.67 39.8199C11.43 39.6299 11.16 39.4899 10.88 39.3999C10.55 39.2799 10.16 39.1599 9.72 39.0299C9.28 38.9099 8.82 38.7599 8.33 38.5899C7.69 38.3799 7.07 38.1199 6.47 37.7999C5.99 37.5499 5.56 37.2199 5.19 36.8399C4.86 36.4899 4.6 36.0699 4.45 35.6099C4.28 35.0999 4.2 34.5699 4.21 34.0299C4.21 33.1299 4.37 32.3399 4.69 31.6499C5 30.9799 5.46 30.3999 6.03 29.9299C6.61 29.4699 7.26 29.1099 7.97 28.8899C8.71 28.6499 9.49 28.5299 10.27 28.5399C10.85 28.5399 11.44 28.5999 12.01 28.7099C12.56 28.8199 13.11 28.9699 13.65 29.1499C14.15 29.3199 14.65 29.5099 15.13 29.7199C15.59 29.9299 16 30.1199 16.37 30.3099L14.45 33.9999Z" fill="#001319"/>
    <path d="M32.94 28.6899V44.9599H28.47V38.5899H23.02V44.9599H18.55V28.6899H23.02V34.6899H28.47V28.6899H32.94Z" fill="#001319"/>
    <path d="M35.55 44.9501V28.6901H43.02C43.78 28.6801 44.53 28.8501 45.22 29.1801C45.87 29.4901 46.46 29.9301 46.95 30.4601C47.43 30.9901 47.82 31.6001 48.08 32.2701C48.35 32.9201 48.49 33.6201 48.49 34.3201C48.5 35.2401 48.28 36.1501 47.87 36.9701C47.47 37.7701 46.88 38.4601 46.15 38.9701L49.59 44.9501H44.55L41.69 39.9501H40.02V44.9501H35.55ZM40.02 36.0601H42.84C43.12 36.0601 43.37 35.9101 43.61 35.6001C43.85 35.2901 43.96 34.8701 43.96 34.3201C43.96 33.7501 43.82 33.3201 43.55 33.0301C43.28 32.7401 43 32.5801 42.73 32.5801H40.03L40.02 36.0601Z" fill="#001319"/>
    <path d="M50.74 44.9499V28.6899H55.2V34.8799L60.15 28.6899H65.19L59.28 35.9799L65.6 44.9599H60.47L56.44 38.9799L55.2 40.2599V44.9599L50.74 44.9499Z" fill="#001319"/>
    <path d="M76.19 33.9999C75.73 33.7299 75.26 33.4799 74.77 33.2699C74.32 33.0699 73.85 32.8999 73.38 32.7599C72.9 32.5999 72.39 32.5199 71.88 32.5199C71.55 32.5099 71.23 32.5699 70.93 32.6999C70.7 32.8199 70.56 33.0599 70.58 33.3199C70.57 33.5199 70.65 33.7099 70.79 33.8499C70.97 34.0099 71.17 34.1399 71.39 34.2299C71.7 34.3599 72.02 34.4699 72.34 34.5599C72.72 34.6699 73.14 34.7999 73.61 34.9499C74.3 35.1599 74.98 35.4099 75.63 35.7099C76.19 35.9599 76.71 36.2899 77.18 36.6799C77.61 37.0499 77.94 37.5199 78.16 38.0399C78.39 38.5699 78.5 39.2199 78.5 39.9899C78.5 40.9699 78.32 41.7899 77.96 42.4499C77.62 43.0899 77.14 43.6399 76.54 44.0399C75.93 44.4499 75.26 44.7399 74.55 44.8999C73.82 45.0699 73.07 45.1599 72.32 45.1599C71.71 45.1599 71.09 45.1099 70.49 45.0199C69.86 44.9299 69.24 44.7999 68.62 44.6299C68.01 44.4599 67.42 44.2599 66.83 44.0299C66.28 43.8099 65.75 43.5499 65.24 43.2499L67.16 39.3299C67.7 39.6699 68.25 39.9699 68.83 40.2199C69.37 40.4699 69.92 40.6699 70.49 40.8399C71.1 41.0199 71.74 41.1199 72.38 41.1199C72.87 41.1199 73.21 41.0599 73.4 40.9199C73.58 40.8099 73.69 40.6099 73.69 40.3999C73.69 40.1699 73.58 39.9599 73.4 39.8199C73.16 39.6299 72.9 39.4899 72.61 39.3999C72.28 39.2799 71.89 39.1599 71.45 39.0299C71.01 38.9099 70.55 38.7599 70.06 38.5899C69.42 38.3799 68.8 38.1199 68.2 37.7999C67.72 37.5499 67.29 37.2299 66.92 36.8399C66.59 36.4899 66.33 36.0699 66.17 35.6099C66 35.0999 65.92 34.5699 65.93 34.0299C65.93 33.1299 66.09 32.3399 66.42 31.6499C66.73 30.9799 67.19 30.3999 67.76 29.9299C68.34 29.4699 68.99 29.1099 69.7 28.8899C70.44 28.6499 71.22 28.5299 72 28.5399C72.58 28.5399 73.17 28.5999 73.74 28.7099C74.3 28.8199 74.85 28.9699 75.39 29.1499C75.89 29.3199 76.38 29.5099 76.87 29.7199C77.33 29.9299 77.74 30.1199 78.11 30.3099L76.19 33.9999Z" fill="#001319"/>
    <path d="M52.19 4.84009H29.81C28.72 4.84009 27.84 5.72009 27.84 6.81009V22.6101C27.84 23.7001 28.72 24.5801 29.81 24.5801H32.41C37.16 22.8901 40.38 17.2201 36.63 10.8401C36.13 9.99009 36.89 9.67009 37.98 10.1101C45.75 13.2101 48.73 23.3901 49.03 24.5801H52.18C53.27 24.5801 54.16 23.7001 54.16 22.6101V6.81009C54.16 5.72009 53.28 4.84009 52.19 4.84009Z" fill="#05CFE4"/>
</svg>
