<svg width="82" height="50" viewBox="0 0 82 50" fill="none" xmlns="http://www.w3.org/2000/svg">
    <path d="M14.45 34C13.99 33.73 13.52 33.48 13.03 33.27C12.58 33.07 12.12 32.9 11.64 32.76C11.16 32.6 10.65 32.52 10.14 32.52C9.81 32.51 9.49 32.57 9.19 32.71C8.96 32.83 8.82 33.07 8.83 33.33C8.82 33.53 8.9 33.72 9.04 33.86C9.22 34.02 9.42 34.15 9.64 34.24C9.95 34.37 10.27 34.48 10.59 34.57C10.96 34.68 11.39 34.81 11.86 34.96C12.55 35.17 13.23 35.42 13.88 35.71C14.44 35.96 14.96 36.29 15.43 36.68C15.86 37.05 16.19 37.52 16.42 38.04C16.65 38.57 16.76 39.22 16.76 39.99C16.76 40.97 16.58 41.79 16.22 42.45C15.88 43.09 15.4 43.64 14.8 44.04C14.19 44.45 13.52 44.74 12.81 44.9C12.08 45.07 11.33 45.16 10.58 45.16C9.97 45.16 9.35 45.11 8.75 45.02C8.12 44.93 7.5 44.8 6.88 44.63C6.27 44.46 5.68 44.26 5.09 44.03C4.54 43.81 4.01 43.55 3.5 43.25L5.42 39.33C5.96 39.67 6.52 39.97 7.1 40.22C7.64 40.47 8.19 40.67 8.76 40.84C9.37 41.02 10.01 41.11 10.65 41.12C11.14 41.12 11.48 41.06 11.67 40.92C11.85 40.81 11.96 40.61 11.96 40.4C11.96 40.17 11.85 39.96 11.67 39.82C11.43 39.63 11.16 39.49 10.88 39.4C10.55 39.28 10.16 39.16 9.72 39.03C9.28 38.91 8.82 38.76 8.33 38.59C7.69 38.38 7.07 38.12 6.47 37.8C5.99 37.55 5.56 37.22 5.19 36.84C4.86 36.49 4.6 36.07 4.45 35.61C4.28 35.1 4.2 34.57 4.21 34.03C4.21 33.13 4.37 32.34 4.69 31.65C5 30.98 5.46 30.4 6.03 29.93C6.61 29.47 7.26 29.11 7.97 28.89C8.71 28.65 9.49 28.53 10.27 28.54C10.85 28.54 11.44 28.6 12.01 28.71C12.56 28.82 13.11 28.97 13.65 29.15C14.15 29.32 14.65 29.51 15.13 29.72C15.59 29.93 16 30.12 16.37 30.31L14.45 34Z" fill="#F8F8F8"/>
    <path d="M32.94 28.6899V44.9599H28.47V38.5899H23.02V44.9599H18.55V28.6899H23.02V34.6899H28.47V28.6899H32.94Z" fill="#F8F8F8"/>
    <path d="M35.55 44.95V28.69H43.02C43.78 28.68 44.53 28.85 45.22 29.18C45.87 29.49 46.46 29.93 46.95 30.46C47.43 30.99 47.82 31.6 48.08 32.27C48.35 32.92 48.49 33.62 48.49 34.32C48.5 35.24 48.28 36.15 47.87 36.97C47.47 37.77 46.88 38.46 46.15 38.97L49.59 44.95H44.55L41.69 39.95H40.02V44.95H35.55ZM40.02 36.06H42.84C43.12 36.06 43.37 35.91 43.61 35.6C43.85 35.29 43.96 34.87 43.96 34.32C43.96 33.75 43.82 33.32 43.55 33.03C43.28 32.74 43 32.58 42.73 32.58H40.03L40.02 36.06Z" fill="#F8F8F8"/>
    <path d="M50.74 44.9499V28.6899H55.2V34.8799L60.15 28.6899H65.19L59.28 35.9799L65.6 44.9599H60.47L56.44 38.9799L55.2 40.2599V44.9599L50.74 44.9499Z" fill="#F8F8F8"/>
    <path d="M76.19 34C75.73 33.73 75.26 33.48 74.77 33.27C74.32 33.07 73.85 32.9 73.38 32.76C72.9 32.6 72.39 32.52 71.88 32.52C71.55 32.51 71.23 32.57 70.93 32.7C70.7 32.82 70.56 33.06 70.58 33.32C70.57 33.52 70.65 33.71 70.79 33.85C70.97 34.01 71.17 34.14 71.39 34.23C71.7 34.36 72.02 34.47 72.34 34.56C72.72 34.67 73.14 34.8 73.61 34.95C74.3 35.16 74.98 35.41 75.63 35.71C76.19 35.96 76.71 36.29 77.18 36.68C77.61 37.05 77.94 37.52 78.16 38.04C78.39 38.57 78.5 39.22 78.5 39.99C78.5 40.97 78.32 41.79 77.96 42.45C77.62 43.09 77.14 43.64 76.54 44.04C75.93 44.45 75.26 44.74 74.55 44.9C73.82 45.07 73.07 45.16 72.32 45.16C71.71 45.16 71.09 45.11 70.49 45.02C69.86 44.93 69.24 44.8 68.62 44.63C68.01 44.46 67.42 44.26 66.83 44.03C66.28 43.81 65.75 43.55 65.24 43.25L67.16 39.33C67.7 39.67 68.25 39.97 68.83 40.22C69.37 40.47 69.92 40.67 70.49 40.84C71.1 41.02 71.74 41.12 72.38 41.12C72.87 41.12 73.21 41.06 73.4 40.92C73.58 40.81 73.69 40.61 73.69 40.4C73.69 40.17 73.58 39.96 73.4 39.82C73.16 39.63 72.9 39.49 72.61 39.4C72.28 39.28 71.89 39.16 71.45 39.03C71.01 38.91 70.55 38.76 70.06 38.59C69.42 38.38 68.8 38.12 68.2 37.8C67.72 37.55 67.29 37.23 66.92 36.84C66.59 36.49 66.33 36.07 66.17 35.61C66 35.1 65.92 34.57 65.93 34.03C65.93 33.13 66.09 32.34 66.42 31.65C66.73 30.98 67.19 30.4 67.76 29.93C68.34 29.47 68.99 29.11 69.7 28.89C70.44 28.65 71.22 28.53 72 28.54C72.58 28.54 73.17 28.6 73.74 28.71C74.3 28.82 74.85 28.97 75.39 29.15C75.89 29.32 76.38 29.51 76.87 29.72C77.33 29.93 77.74 30.12 78.11 30.31L76.19 34Z" fill="#F8F8F8"/>
    <path d="M52.19 4.83997H29.81C28.72 4.83997 27.84 5.71997 27.84 6.80997V22.61C27.84 23.7 28.72 24.58 29.81 24.58H32.41C37.16 22.89 40.38 17.22 36.63 10.84C36.13 9.98997 36.89 9.66997 37.98 10.11C45.75 13.21 48.73 23.39 49.03 24.58H52.18C53.27 24.58 54.16 23.7 54.16 22.61V6.80997C54.16 5.71997 53.28 4.83997 52.19 4.83997Z" fill="#05CFE4"/>
</svg>