<svg width="163" height="28" viewBox="0 0 163 28" fill="none" xmlns="http://www.w3.org/2000/svg">
<path opacity="0.5" d="M17.1623 14.1711C23.1758 14.1711 27.2264 19.1012 27.2264 25.179V27.932H21.7788C21.7788 21.8541 16.9009 16.924 10.8874 16.924H0L3.50427 14.1711H17.1623Z" fill="#1471FC"/>
<path d="M17.1624 14.1711C23.1758 14.1711 27.2264 9.24098 27.2264 3.16315V0.410187H21.7788C21.7788 6.48801 16.9009 11.4181 10.8875 11.4181L10.3099 14.1711H17.1585H17.1624Z" fill="#1471FC"/>
<path d="M0 11.4181V16.9241H3.30135C8.18313 16.9241 8.76848 14.1711 15.8863 14.1711L10.8952 11.4181H0Z" fill="#1471FC"/>
<path d="M49.5639 20.5452L48.2254 24.0909H44.0773L52.6897 1.51895H58.1139L66.7302 24.0909H62.582L61.2435 20.5452H49.5639ZM59.7411 16.676L55.4018 5.29343L51.0624 16.676H59.7411Z" fill="#1a1a2e"/>
<path d="M80.9619 10.6771C80.0682 10.3221 79.081 10.1289 78.0898 10.1289C75.5065 10.1289 73.1143 11.4186 73.1143 14.2899V24.0949H68.9662V6.83953H72.4744L73.1143 9.32429C74.2928 7.16294 76.8137 6.48456 79.0497 6.48456C79.7209 6.48456 80.3882 6.54766 80.9658 6.64627V10.6771H80.9619Z" fill="#1a1a2e"/>
<path d="M98.893 20.1587C97.4569 22.8367 94.6824 24.4498 91.1391 24.4498C85.8124 24.4498 82.2379 20.8371 82.2379 15.4534C82.2379 10.0697 85.8124 6.48849 91.1391 6.48849C94.6824 6.48849 97.4569 8.10162 98.893 10.7757L95.1584 12.9686C94.4248 11.5803 92.9575 10.3576 91.0727 10.3576C88.2319 10.3576 86.3822 12.6136 86.3822 15.4534C86.3822 18.2931 88.2319 20.5807 91.0727 20.5807C92.9536 20.5807 94.4209 19.3541 95.1584 17.9697L98.893 20.1626V20.1587Z" fill="#1a1a2e"/>
<path d="M118.455 13.4853C118.678 14.5186 118.615 15.6466 118.615 16.7115H105.117C105.628 18.8729 107.607 20.5807 109.968 20.5807C112.329 20.5807 113.765 19.6144 114.752 18.2576L118.104 20.1587C116.668 22.8367 113.573 24.4498 110.03 24.4498C104.703 24.4498 100.809 20.8371 100.809 15.4534C100.809 10.0697 104.383 6.48849 109.71 6.48849C114.369 6.48849 117.686 9.22963 118.451 13.4853H118.455ZM114.307 13.4853C113.671 11.746 112.169 10.3576 109.648 10.3576C107.54 10.3576 105.948 11.746 105.308 13.4853H114.307Z" fill="#1a1a2e"/>
<path d="M120.562 10.0658V6.83953H123.115V2.00409H127.263V6.84347H133.865V10.0697H127.263V17.7765C127.263 20.0325 128.188 20.7424 129.721 20.7424C131.095 20.7424 132.945 20.1626 135.114 19.6144V23.6452C132.882 24.1935 130.966 24.4498 129.401 24.4498C124.933 24.4498 123.115 22.2254 123.115 17.7725V10.0658H120.562Z" fill="#1a1a2e"/>
<path d="M140.058 0.0359802C141.494 0.0359802 142.45 0.970727 142.45 2.42215C142.45 3.87357 141.494 4.83987 140.058 4.83987C138.622 4.83987 137.666 3.87357 137.666 2.42215C137.666 0.970727 138.622 0.0359802 140.058 0.0359802ZM137.982 6.83951H142.13V24.0909H137.982V6.83951Z" fill="#1a1a2e"/>
<path d="M144.62 6.83954H149.533L153.619 13.0948L157.705 6.83954H162.684L156.429 15.4495L162.938 24.1225H157.962L153.623 17.8672L149.283 24.1225H144.37L150.848 15.4495L144.624 6.83954H144.62Z" fill="#1a1a2e"/>
</svg>
