<svg class="new" xmlns="http://www.w3.org/2000/svg" viewBox="0 0 238 52" fill="none">
    <path d="M19.5059 0V48.4547C19.5059 50.413 21.0922 52 23.0496 52C25.0071 52 26.5934 50.413 26.5934 48.4547V0H19.5059Z" fill="#853CFF"/><path d="M3.5461 41.0196L45.4818 16.7748C47.1766 15.795 47.7567 13.6265 46.7774 11.9309C45.7981 10.2354 43.6305 9.65497 41.9357 10.6347L0 34.8796L3.5461 41.0196Z" fill="#853CFF"/>
    <path d="M46.9023 36.2692L5.76503 10.6931C4.10287 9.65965 1.91778 10.17 0.884771 11.8328C-0.148243 13.4957 0.361845 15.6817 2.02401 16.7152L43.1613 42.2913L46.9023 36.2692Z" fill="#853CFF"/>
    <path d="M237.033 6.07184H230.009V45.8688H237.033V6.07184Z" fill="#141416"/>
    <path d="M200.627 33.1707L189.747 6.07184H181.387V45.8688H188.251V19.6528L197.553 42.7428H203.703L213.005 19.6528V45.8688H219.869V6.07184H211.507L200.627 33.1707Z" fill="#141416"/>
    <path d="M159.478 6.07184H154.143L138.997 45.8688H146.626L149.765 37.1259H163.896L167.021 45.8688H174.625L159.478 6.07184ZM152.049 30.7628L156.835 17.4341L161.596 30.7628H152.049Z" fill="#141416"/>
    <path d="M79.9971 29.2587H94.1791C92.7119 35.157 87.3297 39.4555 81.1492 39.4555C73.7453 39.4555 67.7223 33.4299 67.7223 26.0229C67.7223 18.6158 73.6846 12.4232 81.0885 12.4232C84.6684 12.4232 88.5588 13.9413 91.477 17.3278L95.9125 12.7736C92.0606 8.33611 86.4566 6.11738 81.1503 6.11738C70.1794 6.11738 61.2534 15.0472 61.2534 26.0229C61.2534 36.9986 70.1794 45.9284 81.1503 45.9284C86.1753 45.9284 90.9295 44.0518 94.5783 40.6992V45.863H101.048V22.7859H79.9971V29.2587Z" fill="#141416"/>
    <path d="M133.289 39.0807H118.621V6.07184H111.598V45.8688H133.289V39.0807Z" fill="#141416"/>
</svg>